<svg id="Layer_3" height="512" viewBox="0 0 64 64" width="512" xmlns="http://www.w3.org/2000/svg" data-name="Layer 3"><path d="m37 34 5.761-4.481a11.957 11.957 0 0 1 7.339-2.519 11.959 11.959 0 0 1 11.454 8.522l.446 1.478-3.384-3.384a8.932 8.932 0 0 0 -6.316-2.616 8.928 8.928 0 0 0 -7.839 4.654l-3.461 6.346h-7l1-6z" fill="#305b26"/><path d="m31 42 7.945-18.778a40.213 40.213 0 0 1 8.6-12.767 8.382 8.382 0 0 1 5.927-2.455 8.381 8.381 0 0 1 7.7 5.081l.828 1.919-3.472-2.083a6.433 6.433 0 0 0 -3.31-.917 6.438 6.438 0 0 0 -5.149 2.574 104.16 104.16 0 0 0 -11.854 20.193l-3.215 7.233" fill="#508c45"/><path d="m33.118 43.4.559-7.85a64.493 64.493 0 0 1 12.323-33.55 16.241 16.241 0 0 0 -13.772 7.633 34.414 34.414 0 0 0 -5.228 18.233v16.134" fill="#447b3b"/><path d="m23 38-1.742-11.323a22.15 22.15 0 0 1 -.258-3.377v-.111a22.193 22.193 0 0 1 6.5-15.689l-2.147 11.6a21.067 21.067 0 0 0 -.353 3.837 21.092 21.092 0 0 0 1.509 7.835l4.491 11.228h-6" fill="#5c9d52"/><path d="m19 34a39.992 39.992 0 0 1 -9.22-27.6l.22-4.4 12 34" fill="#305b26"/><path d="m12 42h40v10a10 10 0 0 1 -10 10h-20a10 10 0 0 1 -10-10z" fill="#574138"/><path d="m34 60h13.982a9.974 9.974 0 0 0 4.018-8v-10h-36.95a18.985 18.985 0 0 0 18.95 18z" fill="#684d42"/><path d="m24 42a31.73 31.73 0 0 1 -16.264-11.352l-5.736-7.648 10.723 4.6a30.519 30.519 0 0 1 15.277 14.4" fill="#447b3b"/><path d="m24 38-.715-.715a4.387 4.387 0 0 0 -3.102-1.285h-.021a4.387 4.387 0 0 0 -4.162 3v.056a37.881 37.881 0 0 0 4 16.944v-1.056a37.881 37.881 0 0 1 4-16.944z" fill="#508c45"/><path d="m62 59-11.13-15.9a9.641 9.641 0 0 0 -3.44-3.01 9.519 9.519 0 0 0 -4.43-1.09h-.37l1.83-3.35c.09-.16.18-.32.28-.47a8.316 8.316 0 0 1 9.39 4.92z" fill="#447b3b"/></svg>