<svg height="512" viewBox="0 0 512 512" width="512" xmlns="http://www.w3.org/2000/svg" xmlns:xlink="http://www.w3.org/1999/xlink"><linearGradient id="New_Gradient_Swatch_12" gradientTransform="matrix(.888 -.46 .46 .888 -48.78 167.955)" gradientUnits="userSpaceOnUse" x1="225.368" x2="312.884" y1="143.201" y2="115.452"><stop offset=".011" stop-color="#80d1cb"/><stop offset="1" stop-color="#bfe8e5"/></linearGradient><linearGradient id="New_Gradient_Swatch_12-2" gradientTransform="matrix(-.888 -.46 -.46 .888 560.78 167.955)" x1="420.895" x2="401.439" xlink:href="#New_Gradient_Swatch_12" y1="233.657" y2="172.297"/><linearGradient id="New_Gradient_Swatch_12-3" gradientTransform="matrix(0 -1 1 0 136 360)" x1="263.163" x2="317.054" xlink:href="#New_Gradient_Swatch_12" y1="13.054" y2="66.946"/><linearGradient id="New_Gradient_Swatch_2" gradientUnits="userSpaceOnUse" x1="62" x2="290" y1="470" y2="242"><stop offset=".011" stop-color="#f8c73f"/><stop offset="1" stop-color="#fada7f"/></linearGradient><linearGradient id="New_Gradient_Swatch_8" gradientUnits="userSpaceOnUse" x1="96" x2="256" y1="352" y2="192"><stop offset=".011" stop-color="#fad46a"/><stop offset="1" stop-color="#fce6aa"/></linearGradient><linearGradient id="New_Gradient_Swatch_11" gradientUnits="userSpaceOnUse" x1="284.804" x2="443.196" y1="459.196" y2="300.804"><stop offset=".011" stop-color="#60c6be"/><stop offset="1" stop-color="#80d1cb"/></linearGradient><g id="_19-watering" data-name="19-watering"><g id="linear_color" data-name="linear color"><path d="m210.388 184.1s-9.856-30.935 13.678-43.138 71.546-1.052 71.546-1.052-18.552 45.665-42.086 57.868-43.138-13.678-43.138-13.678z" fill="url(#New_Gradient_Swatch_12)"/><path d="m141.612 184.1s9.856-30.935-13.678-43.138-71.546-1.052-71.546-1.052 18.552 45.66 42.086 57.863 43.138-13.673 43.138-13.673z" fill="url(#New_Gradient_Swatch_12-2)"/><path d="m176 112s-32-5.49-32-32 32-64 32-64 32 37.49 32 64-32 32-32 32z" fill="url(#New_Gradient_Swatch_12-3)"/><path d="m264 496h-176l-32-248h240z" fill="url(#New_Gradient_Swatch_2)"/><path d="m40 248h272v48h-272z" fill="url(#New_Gradient_Swatch_8)"/><circle cx="364" cy="380" fill="url(#New_Gradient_Swatch_11)" r="112"/><path d="m198.954 187.738a12.032 12.032 0 0 0 1.868 3.6c6.718 8.867 21.833 21.694 39.91 21.694a39.389 39.389 0 0 0 18.318-4.609c26.692-13.841 45.611-58.912 47.68-64.006a12 12 0 0 0 -8.4-16.2c-5.356-1.245-53.094-11.751-79.785 2.088-25.722 13.336-24.062 43.4-19.591 57.433zm30.636-36.128c10.724-5.562 31.638-4.968 48.535-2.665-7.225 13.928-18.701 32.255-30.125 38.175-11.713 6.074-22.872-4.453-26.705-8.693-1.242-5.507-3.447-20.727 8.295-26.817z"/><path d="m92.95 208.427a39.38 39.38 0 0 0 18.318 4.609c18.075 0 33.193-12.827 39.91-21.694a12.032 12.032 0 0 0 1.868-3.6c4.471-14.033 6.131-44.1-19.588-57.434-26.693-13.84-74.43-3.332-79.785-2.088a12 12 0 0 0 -8.4 16.2c2.066 5.095 20.985 50.166 47.677 64.007zm29.46-56.817c11.705 6.07 9.542 21.24 8.285 26.825-3.841 4.246-14.99 14.754-26.7 8.685-10.725-5.56-22.291-23-30.145-38.133 15.55-2.117 37.14-3.299 48.56 2.623z"/><path d="m364 256a123.489 123.489 0 0 0 -40 6.622v-14.622a12 12 0 0 0 -12-12h-124v-114.924c14.455-5.376 32-17.914 32-41.076 0-30.066-31.3-67.608-34.873-71.791a12 12 0 0 0 -18.254 0c-3.573 4.183-34.873 41.725-34.873 71.791 0 23.162 17.545 35.7 32 41.076v114.924h-124a12 12 0 0 0 -12 12v48a12 12 0 0 0 12 12h11.639l24.461 189.536a12 12 0 0 0 11.9 10.464h176a12 12 0 0 0 11.9-10.464l3.484-26.982a123.973 123.973 0 1 0 84.616-214.554zm-208-176c0-12.08 10.154-30.374 19.976-44.313 9.038 12.827 20.024 31.448 20.024 44.313 0 13.185-14.463 18.248-20 19.7-5.537-1.452-20-6.515-20-19.7zm144 180v13.829a124.711 124.711 0 0 0 -14.395 10.171h-233.605v-24zm-201.449 224-22.713-176h187.262a123.747 123.747 0 0 0 -4.624 137.051l-5.026 38.949zm265.449-4a100 100 0 1 1 100-100 100.113 100.113 0 0 1 -100 100z"/><circle cx="364.551" cy="436" r="12" transform="matrix(.004 -1 1 .004 -72.859 798.858)"/><path d="m402.746 379.73a68.046 68.046 0 0 0 -77.727.932 12 12 0 1 0 13.962 19.522 44.04 44.04 0 0 1 50.273-.6 12 12 0 0 0 13.492-19.85z"/><path d="m435.326 344.078a116.056 116.056 0 0 0 -142.778.959 12 12 0 0 0 14.9 18.813 92.051 92.051 0 0 1 113.223-.762 12 12 0 0 0 14.652-19.01z"/></g></g></svg>